<svg width="400" height="400" viewBox="0 0 400 400" fill="none" xmlns="http://www.w3.org/2000/svg">
<path d="M25.8626 26.0027C27.429 26.365 28.5118 26.8812 29.8143 27.926C30.3553 28.3539 30.3553 28.3539 30.9072 28.7905C31.5051 29.27 31.5051 29.27 32.1152 29.7592C39.6147 35.6759 47.2312 41.3937 54.843 47.1219C55.7233 47.785 56.6028 48.4495 57.4821 49.1141C63.5927 53.7289 69.8186 58.0073 76.2274 62.0679C77.8726 63.111 79.5144 64.161 81.1558 65.2117C88.3995 69.8416 95.6518 74.4273 103.092 78.6394C103.645 78.9526 103.645 78.9526 104.209 79.2721C108.433 81.6614 112.667 84.0268 116.91 86.3731C117.316 86.5979 117.722 86.8228 118.141 87.0544C123.409 89.9643 128.696 92.7632 134.106 95.3198C136.574 96.488 138.971 97.735 141.352 99.1226C144.399 100.896 147.498 102.453 150.647 103.98C157.959 107.533 165.137 111.404 172.321 115.277C174.223 116.302 176.128 117.321 178.037 118.33C182.231 120.549 186.383 122.804 190.436 125.343C190.924 125.647 191.411 125.952 191.913 126.265C203.836 133.784 215.318 141.836 225.153 152.643C225.938 153.489 226.739 154.305 227.553 155.115C243.654 171.268 253.782 193.567 255.905 217.852C255.944 218.303 255.984 218.753 256.024 219.217C258.719 252.659 248.39 287.378 229.592 313.108C228.304 314.835 226.995 316.54 225.667 318.228C225.105 318.947 224.55 319.673 224 320.404C221.786 323.335 219.445 326.028 216.951 328.652C216.573 329.05 216.195 329.449 215.806 329.859C208.318 337.699 199.97 344.394 191.133 350.137C190.078 350.827 189.033 351.534 187.987 352.241C167.188 366.079 143.376 374.023 119.284 373.996C118.887 373.996 118.49 373.997 118.08 373.997C112.158 373.996 106.327 373.696 100.438 372.933C98.2139 372.65 96.0424 372.621 93.8052 372.668C93.8052 372.267 93.8052 371.866 93.8052 371.453C92.928 371.491 92.928 371.491 92.0331 371.529C90.0604 371.453 90.0604 371.453 88.4554 370.239C88.9057 369.994 89.3561 369.749 89.82 369.497C103.766 361.799 117.326 353.024 129.649 342.312C129.985 342.021 130.321 341.73 130.668 341.431C131.68 340.553 132.688 339.669 133.695 338.783C133.994 338.521 134.294 338.258 134.602 337.988C136.135 336.621 137.535 335.206 138.892 333.615C140.349 331.991 140.349 331.991 141.419 331.991C141.595 331.39 141.772 330.789 141.954 330.169C142.307 330.169 142.66 330.169 143.024 330.169C143.24 329.621 143.24 329.621 143.46 329.062C144.099 327.729 144.674 327.031 145.665 326.033C153.642 317.169 160.136 304.758 160.444 291.959C160.434 285.046 158.037 279.95 153.88 274.95C150.205 271.154 150.205 271.154 145.698 269.457C145.161 268.853 144.627 268.245 144.093 267.636C142.705 266.882 141.339 266.197 139.914 265.549C139.511 265.364 139.109 265.18 138.694 264.989C131.922 261.595 131.922 261.595 124.834 261.565C124.305 260.663 124.305 260.663 123.764 259.744C122.397 259.118 122.397 259.118 120.759 258.674C119.833 258.392 119.833 258.392 118.887 258.104C117.892 257.807 117.892 257.807 116.876 257.505C103.712 253.4 91.9874 247.704 81.2632 238.021C80.5653 237.4 79.8451 236.812 79.1204 236.232C78.8466 235.977 78.5728 235.722 78.2908 235.459C78.2908 235.058 78.2908 234.657 78.2908 234.245C77.9887 234.104 77.6867 233.963 77.3754 233.818C66.8194 227.031 59.772 207.725 56.3565 195.389C56.18 194.988 56.0034 194.588 55.8215 194.175C59.4054 194.903 62.8134 195.895 66.262 197.213C66.9517 197.471 66.9517 197.471 67.6554 197.734C69.1062 198.277 70.5556 198.825 72.0047 199.373C73.4616 199.924 74.9188 200.473 76.377 201.019C77.2793 201.357 78.1808 201.697 79.0815 202.04C81.3088 202.875 83.4444 203.54 85.7805 203.889C85.7805 204.289 85.7805 204.69 85.7805 205.103C86.4586 205.266 87.1367 205.43 87.8354 205.598C90.6674 206.314 93.4479 207.194 96.2356 208.103C96.7674 208.275 97.2992 208.447 97.8471 208.625C99.5653 209.182 101.283 209.741 103 210.301C103.587 210.492 104.174 210.683 104.779 210.88C142.127 223.04 142.127 223.04 155.863 230.602C156.235 230.805 156.608 231.009 156.991 231.218C162.086 234.037 166.492 237.417 170.843 241.53C171.316 241.967 171.789 242.403 172.276 242.853C180.398 250.693 186.63 262.177 187.962 274.314C188.712 287.945 186.884 298.872 181.007 310.742C180.602 311.591 180.602 311.591 180.188 312.459C176.341 320.172 170.428 328.111 164.423 333.812C164.07 333.812 163.717 333.812 163.353 333.812C163.353 334.213 163.353 334.613 163.353 335.026C162.281 336.091 161.206 337.081 160.076 338.062C159.577 338.501 159.577 338.501 159.069 338.948C155.573 342.001 151.985 344.904 148.373 347.776C149.942 347.776 150.584 347.577 151.978 346.884C152.369 346.69 152.76 346.496 153.162 346.297C170.894 337.232 186.316 323.403 193.479 302.28C196.636 292.512 197.974 281.802 196.421 271.506C196.315 270.801 196.315 270.801 196.207 270.081C194.509 259.505 190.717 250.46 184.752 242.137C184.39 241.625 184.028 241.113 183.655 240.586C177.086 231.798 168.326 225.414 159.073 220.888C158.896 220.487 158.72 220.087 158.538 219.674C157.612 219.212 157.612 219.212 156.475 218.851C154.606 218.184 152.779 217.456 150.954 216.645C138.419 211.205 125.417 207.6 112.453 203.738C68.04 190.484 68.04 190.484 54.7516 171.711C54.3061 171.106 53.8606 170.501 53.4016 169.878C42.19 154.433 34.6214 133.651 34.9573 113.428C35.5014 113.825 35.5014 113.825 36.0565 114.229C55.9637 128.685 77.6193 137.722 99.8927 146.331C135.121 159.947 135.121 159.947 145.698 165.033C146.086 165.217 146.473 165.401 146.872 165.59C166.978 175.189 186.054 188.479 200.267 207.531C200.642 208.031 201.017 208.531 201.403 209.047C205.512 214.624 209.064 220.597 212.538 226.694C212.74 227.048 212.942 227.402 213.15 227.767C214.116 229.481 215.022 231.186 215.781 233.03C216.367 217.511 208.052 202.136 199.197 191.139C175.66 162.49 139.361 150.7 107.782 137.826C48.7672 113.76 48.7672 113.76 34.7713 80.0932C30.2185 68.7661 27.7019 57.1518 26.3976 44.8234C26.3272 44.2247 26.2569 43.626 26.1844 43.0091C25.6136 37.3802 25.8187 31.6592 25.8626 26.0027ZM216.316 234.852C216.851 236.066 216.851 236.066 216.851 236.066L216.316 234.852ZM146.768 348.383C146.415 348.784 146.062 349.184 145.698 349.597C146.405 349.397 147.111 349.197 147.838 348.99C147.485 348.79 147.132 348.589 146.768 348.383Z" fill="#4EAADD"/>
<path d="M315.722 99.6117C336.515 98.9738 355.735 109.817 370.71 125.483C371.999 126.941 373.147 128.388 374.209 130.065C374.209 130.466 374.209 130.867 374.209 131.28C373.882 131.271 373.555 131.261 373.218 131.252C358.32 130.876 345.467 133.841 334.198 145.862C320.076 162.527 317.493 187.314 317.674 209.39C317.727 220.13 316.288 230.263 313.925 240.64C313.824 241.094 313.723 241.548 313.619 242.015C310.065 257.746 303.706 273.725 295.253 286.814C294.676 287.734 294.098 288.654 293.521 289.574C290.069 295.037 286.522 300.159 282.449 305.041C281.846 305.835 281.245 306.632 280.649 307.433C276.797 312.473 272.538 317.154 268.045 321.445C267.607 321.876 267.169 322.308 266.718 322.753C245.66 343.218 214.657 365.146 185.888 364.581C186.63 362.891 187.484 362.714 188.989 361.923C202.329 354.48 215.159 344.36 225.958 332.734C226.967 331.773 226.967 331.773 228.034 331.773C228.034 331.372 228.034 330.971 228.034 330.558C228.386 330.558 228.738 330.558 229.101 330.558C229.101 330.157 229.101 329.756 229.101 329.343C229.786 328.598 229.786 328.598 230.734 327.748C232.559 326.025 234.085 324.167 235.615 322.109C236.225 321.297 236.849 320.497 237.491 319.717C241.512 314.806 244.885 309.281 248.306 303.826C248.671 303.251 249.035 302.676 249.411 302.084C258.702 286.494 263.863 267.083 265.911 248.538C265.989 247.849 265.989 247.849 266.067 247.147C268.524 222.689 264.929 193.842 252.947 172.877C251.861 170.355 251.923 168.556 252.307 165.873C252.364 165.422 252.421 164.972 252.479 164.508C254.712 147.97 261.793 133.621 271.78 121.56C272.1 121.155 272.421 120.751 272.751 120.335C284.012 106.678 299.606 100.581 315.722 99.6117Z" fill="#4EAADD"/>
</svg>
